<svg width="68" height="68" viewBox="0 0 68 68" fill="none" xmlns="http://www.w3.org/2000/svg">
<path d="M0.000493835 33.9005C-0.0995062 15.2005 15.0005 0.100494 33.7005 0.000493835C52.4005 -0.0995062 67.5005 15.0005 67.6005 33.7005C67.7005 52.4005 52.6005 67.5005 33.9005 67.6005H33.8005C15.2005 67.6005 0.100494 52.5005 0.000493835 33.9005ZM1.00049 33.9005C1.00049 52.0005 15.7005 66.7005 33.8005 66.7005C51.9005 66.7005 66.6005 52.0005 66.6005 33.9005C66.6005 15.8005 52.0005 1.20049 33.9005 1.10049H33.8005C15.7005 1.10049 1.00049 15.8005 1.00049 33.9005Z" fill="#2B2B2B"/>
<path d="M24.0005 23.5008C25.0005 23.1008 26.0005 22.5008 26.8005 21.7008C27.1005 23.1008 27.7005 24.4008 28.6005 25.6008C27.8005 25.9008 27.0005 26.3008 26.4005 26.9008C26.0005 25.6008 25.1005 24.4008 24.0005 23.5008ZM35.4005 17.5008C34.2005 17.4008 33.0005 17.6008 31.8005 18.0008C31.6005 16.1008 30.9005 14.3008 29.8005 12.8008C29.9005 12.7008 32.7005 11.6008 34.5005 11.9008C36.3005 12.2008 35.5005 16.0008 35.4005 17.5008ZM37.1005 51.1008L38.2005 51.8008H29.0005C29.9005 51.3008 30.7005 50.9008 30.8005 50.5008C31.2005 48.8008 31.2005 46.9008 30.8005 45.2008C30.0005 43.6008 28.6005 42.4008 26.9005 41.8008C26.3005 41.9008 25.7005 42.2008 25.1005 42.5008L26.1005 43.2008C25.2005 43.8008 24.4005 44.6008 23.9005 45.6008C23.4005 45.0008 22.8005 44.5008 22.2005 44.0008C22.7005 43.0008 23.5005 42.2008 24.5005 41.6008L25.0005 42.1008C25.4005 41.8008 25.8005 41.5008 26.3005 41.4008C24.6005 40.8008 22.8005 40.3008 21.0005 40.1008V41.9008C19.0005 41.7008 17.1005 41.9008 15.2005 42.6008C15.2005 42.4008 14.6005 39.6008 15.3005 37.9008C16.0005 36.2008 19.8005 38.0008 21.4005 38.3008C21.3005 38.7008 21.2005 39.2008 21.1005 39.6008C22.4005 39.4008 23.6005 39.3008 24.9005 39.4008C24.3005 38.5008 23.4005 37.8008 22.4005 37.4008C21.3005 36.9008 20.4005 36.3008 19.5005 35.5008L18.0005 36.3008C17.7005 34.4008 16.7005 32.5008 15.4005 31.1008C16.9005 30.8008 18.3005 30.2008 19.6005 29.5008C19.8005 30.9008 20.1005 33.8008 21.1005 35.1008C20.5005 35.1008 20.0005 35.3008 19.5005 35.6008C20.5005 36.3008 21.7005 36.8008 22.9005 37.1008C22.8005 36.6008 22.8005 36.1008 22.9005 35.6008H22.2005C22.1005 34.7008 22.1005 33.9008 22.3005 33.0008C23.0005 32.9008 23.7005 33.0008 24.3005 33.2008C23.9005 34.0008 23.7005 34.8008 23.7005 35.7008H22.9005C22.9005 36.3008 23.0005 36.8008 23.3005 37.3008C24.6005 37.7008 25.8005 38.6008 26.5005 39.8008L29.2005 40.5008C29.2005 40.0008 29.1005 39.5008 28.9005 39.1008L28.2005 39.3008C28.0005 38.4008 27.6005 37.6008 27.0005 37.0008C27.6005 36.7008 28.3005 36.4008 29.0005 36.3008C29.4005 37.1008 29.6005 37.9008 29.7005 38.8008H28.9005C29.2005 39.3008 29.4005 39.8008 29.5005 40.4008L31.1005 41.1008C31.3005 38.7008 30.5005 36.4008 29.0005 34.6008L27.4005 35.9008C26.9005 33.8008 23.8005 31.1008 23.8005 31.1008C25.0005 30.5008 26.1005 29.7008 27.1005 28.7008C29.0005 29.7008 30.4005 32.6008 30.7005 33.4008L29.2005 34.2008L31.0005 35.7008L31.7005 36.7008C32.1005 36.4008 32.4005 36.0008 32.7005 35.5008L31.7005 35.2008C32.4005 34.2008 32.8005 33.1008 33.0005 31.9008C33.7005 32.4008 34.5005 32.7008 35.3005 32.8008C35.2005 34.0008 34.8005 35.2008 34.1005 36.2008L33.1005 35.7008C32.9005 36.3008 32.6005 36.9008 32.1005 37.4008C32.7005 38.7008 33.1005 40.2008 33.7005 41.6008C37.3005 38.6008 36.3005 32.9008 35.6005 30.3008L33.9005 31.6008C32.7005 29.7008 31.1005 28.2008 29.2005 27.1008C29.3005 27.0008 31.4005 24.4008 33.4005 23.9008C35.4005 23.4008 36.4005 27.8008 37.3005 29.5008L36.0005 30.2008C36.9005 31.6008 37.6005 33.1008 37.9005 34.7008L39.5005 33.4008L38.8005 33.1008C39.3005 32.1008 40.1005 31.3008 41.1005 30.7008C41.6005 31.3008 42.2005 31.8008 42.8005 32.2008C41.9005 32.8008 41.1005 33.6008 40.6005 34.6008L39.7005 33.7008C39.0005 34.6008 38.4005 35.7008 38.0005 36.8008C38.1005 38.0008 38.0005 39.3008 37.7005 40.5008C38.7005 39.9008 39.8005 39.6008 41.0005 39.5008C41.3005 38.3008 42.0005 37.4008 43.1005 36.8008L42.0005 35.5008C43.2005 34.3008 45.5005 32.1008 46.8005 31.8008C48.0005 32.9008 48.9005 34.2008 49.5005 35.7008C47.6005 36.1008 45.8005 37.0008 44.3005 38.3008L43.4005 37.0008C42.8005 37.7008 42.4005 38.5008 42.3005 39.4008C43.8005 39.3008 45.4005 39.4008 46.9005 39.6008C47.0005 39.0008 47.1005 38.5008 47.0005 37.9008C47.8005 37.8008 51.0005 37.9008 52.8005 39.2008C52.4005 40.5008 52.1005 41.9008 52.1005 43.3008C52.1005 43.3008 48.4005 41.7008 46.3005 42.1008C46.5005 41.5008 46.7005 40.8008 46.8005 40.2008C44.7005 40.0008 42.6005 40.3008 40.6005 41.1008L42.6005 41.5008C42.7005 41.3008 42.8005 41.0008 42.8005 40.8008C43.9005 41.0008 44.9005 41.6008 45.7005 42.4008C45.1005 42.9008 44.7005 43.6008 44.5005 44.3008C43.7005 43.6008 42.7005 43.1008 41.6005 42.8008L42.3005 41.7008C41.4005 41.6008 40.5005 41.5008 39.6005 41.6008L38.0005 42.7008C37.4005 43.3008 36.9005 44.0008 36.6005 44.8008C36.9005 45.2008 37.0005 45.7008 37.0005 46.2008C37.1005 47.0008 36.7005 47.7008 36.0005 48.1008C36.0005 49.2008 36.4005 50.3008 37.1005 51.1008ZM36.1005 46.0008C36.2005 45.6008 36.0005 45.2008 35.6005 45.0008C35.2005 45.1008 35.0005 45.5008 35.0005 45.9008C34.9005 46.3008 35.1005 46.7008 35.5005 46.9008C35.9005 46.8008 36.2005 46.4008 36.1005 46.0008ZM35.4005 44.2008C34.7005 44.4008 34.4005 45.2008 34.6005 46.3008C34.5005 45.6008 34.8005 44.9008 35.3005 44.4008C35.6005 44.2008 35.4005 44.1008 35.4005 44.1008V44.2008ZM29.3005 23.1008C28.4005 21.3008 27.1005 19.7008 25.5005 18.5008C25.6005 18.4008 27.8005 16.4008 29.6005 16.0008C31.4005 15.6008 32.0005 19.9008 32.5005 21.4008L30.8005 22.1008C31.0005 22.7008 31.0005 23.3008 30.8005 23.9008C30.7005 23.4008 30.6005 22.8008 30.4005 22.3008L29.3005 23.1008ZM15.8005 33.2008C15.4005 33.7008 15.3005 35.9008 15.4005 37.4008C13.5005 36.8008 11.5005 36.6008 9.50049 36.7008C9.90049 35.3008 10.1005 33.9008 9.90049 32.5008C10.8005 33.2008 14.4005 33.3008 15.8005 33.2008ZM24.9005 28.4008C23.5005 28.5008 22.2005 29.0008 21.0005 29.7008C20.9005 27.8008 19.1005 25.1008 18.2005 23.7008C20.0005 23.6008 23.2005 22.0008 23.2005 22.0008C22.8005 23.8008 23.8005 26.6008 24.9005 28.4008ZM39.9005 19.6008C38.9005 19.4008 37.9005 19.4008 36.9005 19.6008C36.7005 18.3008 36.5005 15.6008 37.0005 14.5008C38.3005 14.3008 39.6005 14.4008 40.9005 14.8008C40.2005 16.3008 39.8005 17.9008 39.9005 19.6008ZM23.2005 21.2008C23.2005 21.2008 21.5005 18.7008 20.1005 18.2008C20.9005 17.6008 21.6005 16.8008 22.1005 16.0008C23.4005 16.7008 24.4005 17.7008 25.1005 19.0008C24.3005 19.6008 23.7005 20.4008 23.2005 21.2008ZM42.7005 28.1008C44.6005 27.1008 46.5005 23.5008 46.5005 23.5008C47.4005 24.6008 48.4005 25.5008 49.6005 26.3008C49.0005 28.4008 46.6005 30.5008 45.9005 30.9008C45.6005 30.5008 45.3005 30.1008 44.9005 29.8008C44.1005 30.6008 43.5005 31.7008 43.2005 32.8008C43.4005 31.6008 43.9005 30.5008 44.5005 29.5008L42.7005 28.1008ZM51.7005 38.4008C51.9005 37.7008 51.0005 35.4008 50.2005 33.8008C52.5005 33.6008 54.7005 32.9008 56.7005 31.7008C56.9005 33.3008 57.4005 34.9008 58.2005 36.3008C57.0005 36.1008 53.1005 37.6008 51.7005 38.4008ZM48.6005 29.9008C50.2005 28.9008 52.4005 26.8008 52.9005 25.1008C53.9005 26.5008 55.1005 27.7008 56.5005 28.7008C55.1005 29.5008 52.3005 31.2008 51.4005 32.7008C50.7005 31.5008 49.8005 30.6008 48.6005 29.9008ZM40.6005 21.9008C41.2005 20.7008 42.5005 17.3008 42.4005 16.3008C43.6005 17.0008 45.0005 17.4008 46.4005 17.6008C45.5005 19.3008 44.9005 21.2008 44.7005 23.1008C43.4005 22.4008 41.3005 21.6008 40.7005 21.8008L40.6005 21.9008ZM39.3005 27.9008C39.0005 29.2008 38.4005 30.5008 37.6005 31.6008C38.2005 30.4008 38.5005 29.1008 38.6005 27.7008L37.0005 27.3008C38.0005 26.0008 38.2005 23.1008 38.3005 21.7008C39.7005 22.4008 41.1005 22.9008 42.6005 23.1008C41.4005 24.1008 40.6005 26.7008 40.4005 28.5008L39.3005 27.9008ZM33.4005 20.0008C34.4005 20.0008 35.3005 19.8008 36.2005 19.4008C36.2005 20.8008 36.5005 22.1008 37.0005 23.4008C36.0005 23.4008 35.1005 23.6008 34.2005 24.0008C34.2005 22.6008 33.9005 21.3008 33.4005 20.0008ZM52.5005 20.9008C51.5005 21.7008 50.6005 22.7008 50.1005 23.9008C49.4005 23.4008 48.7005 23.1008 47.9005 22.9008C48.3005 21.9008 49.0005 19.9008 49.7005 19.3008C50.7005 19.6008 51.7005 20.1008 52.5005 20.8008V20.9008ZM15.8005 28.6008C15.2005 27.0008 12.7005 25.1008 12.7005 25.1008C13.6005 24.5008 14.4005 23.9008 15.1005 23.1008C16.5005 23.9008 17.6005 25.0008 18.3005 26.4008C17.4005 27.0008 16.5005 27.7008 15.8005 28.6008Z" fill="#2B2B2B"/>
<path d="M16.5004 51.4005H51.0004V51.9005H16.5004V51.4005ZM14.5004 54.8005H14.3004C9.20039 50.1005 6.10039 43.7005 5.40039 36.8005C5.50039 36.6005 5.60039 36.6005 5.80039 36.6005L5.90039 36.7005C6.60039 43.4005 9.70039 49.7005 14.7004 54.3005C14.8004 54.4005 14.8004 54.6005 14.7004 54.7005H14.5004V54.8005ZM53.0004 54.8005H52.8004C52.7004 54.7005 52.7004 54.5005 52.8004 54.4005C57.8004 49.8005 60.9004 43.5005 61.6004 36.7005C61.5004 36.5005 61.6004 36.4005 61.8004 36.3005C62.0004 36.2005 62.1004 36.3005 62.2004 36.5005C62.2004 36.6005 62.2004 36.7005 62.1004 36.8005C61.4004 43.7005 58.2004 50.1005 53.2004 54.8005H53.0004Z" fill="#2B2B2B"/>
<path d="M23.9607 57.6534L23.8737 59.0005H20.0774V58.7717C20.1419 58.7674 20.2278 58.7588 20.3353 58.7459C20.4427 58.7309 20.5125 58.7158 20.5447 58.7008C20.6135 58.6686 20.6607 58.6267 20.6865 58.5751C20.7145 58.5235 20.7284 58.458 20.7284 58.3785V55.0914C20.7284 55.0205 20.7166 54.9582 20.693 54.9045C20.6693 54.8486 20.6199 54.8035 20.5447 54.7691C20.4867 54.7412 20.4083 54.7165 20.3095 54.695C20.2128 54.6735 20.1354 54.6606 20.0774 54.6563V54.4275H23.6159V55.5297H23.3742C23.3312 55.3664 23.2378 55.1935 23.0938 55.0108C22.9521 54.8261 22.8167 54.7251 22.6878 54.7079C22.6212 54.6993 22.5417 54.6929 22.4493 54.6886C22.3569 54.6843 22.2517 54.6821 22.1335 54.6821H21.4148V56.4997H21.9305C22.0959 56.4997 22.2162 56.4847 22.2914 56.4546C22.3687 56.4224 22.4364 56.3697 22.4944 56.2967C22.5417 56.2344 22.5814 56.1517 22.6137 56.0485C22.648 55.9433 22.6706 55.8444 22.6813 55.7521H22.923V57.5406H22.6813C22.6728 57.4375 22.6491 57.329 22.6104 57.2151C22.5739 57.0991 22.5353 57.0153 22.4944 56.9638C22.4278 56.88 22.3516 56.8252 22.2656 56.7994C22.1818 56.7736 22.0701 56.7607 21.9305 56.7607H21.4148V58.1336C21.4148 58.2711 21.4245 58.3796 21.4438 58.4591C21.4632 58.5386 21.5008 58.5987 21.5566 58.6396C21.6125 58.6804 21.6888 58.7072 21.7854 58.7201C21.8821 58.7309 22.0196 58.7362 22.1979 58.7362C22.2688 58.7362 22.3623 58.7362 22.4783 58.7362C22.5943 58.7362 22.6921 58.7319 22.7716 58.7233C22.8532 58.7147 22.937 58.6997 23.0229 58.6782C23.111 58.6546 23.1733 58.6234 23.2099 58.5848C23.3087 58.4816 23.4118 58.3259 23.5192 58.1175C23.6288 57.9069 23.6986 57.7522 23.7287 57.6534H23.9607ZM26.4422 57.4439C26.5303 57.5213 26.5979 57.6104 26.6452 57.7114C26.6925 57.8124 26.7161 57.9359 26.7161 58.082C26.7161 58.3764 26.6055 58.617 26.3842 58.8039C26.165 58.9908 25.8804 59.0843 25.5302 59.0843C25.3454 59.0843 25.1746 59.051 25.0178 58.9844C24.8631 58.9178 24.7524 58.8565 24.6858 58.8007L24.6214 59.0102H24.3797L24.3475 57.9048H24.5698C24.587 57.9886 24.6235 58.0863 24.6794 58.198C24.7353 58.3098 24.8029 58.4107 24.8824 58.501C24.9662 58.5955 25.0661 58.675 25.1821 58.7395C25.3003 58.8039 25.4324 58.8361 25.5785 58.8361C25.7848 58.8361 25.9437 58.7899 26.0555 58.6976C26.1672 58.603 26.223 58.4688 26.223 58.2947C26.223 58.2045 26.2048 58.1271 26.1683 58.0627C26.1339 57.9961 26.0823 57.9381 26.0136 57.8887C25.9427 57.8393 25.8557 57.7952 25.7525 57.7565C25.6494 57.7157 25.5345 57.676 25.4077 57.6373C25.3067 57.6072 25.1939 57.5664 25.0693 57.5148C24.9469 57.4611 24.8416 57.3988 24.7535 57.3279C24.659 57.2527 24.5816 57.1604 24.5215 57.0508C24.4613 56.9412 24.4312 56.8123 24.4312 56.6641C24.4312 56.4041 24.5279 56.1839 24.7213 56.0034C24.9146 55.8229 25.1735 55.7327 25.4979 55.7327C25.6226 55.7327 25.7493 55.7488 25.8782 55.7811C26.0093 55.8133 26.1156 55.852 26.1973 55.8971L26.2714 55.7295H26.5034L26.5518 56.7511H26.3294C26.2843 56.5233 26.1865 56.3386 26.0361 56.1968C25.8879 56.0528 25.7063 55.9809 25.4915 55.9809C25.3153 55.9809 25.1768 56.0249 25.0758 56.113C24.9748 56.2011 24.9243 56.3074 24.9243 56.432C24.9243 56.5287 24.9404 56.6093 24.9727 56.6737C25.007 56.7382 25.0575 56.793 25.1241 56.8381C25.1886 56.8811 25.2691 56.9219 25.3658 56.9605C25.4646 56.9971 25.586 57.039 25.73 57.0862C25.8718 57.1313 26.005 57.184 26.1296 57.2441C26.2563 57.3043 26.3605 57.3709 26.4422 57.4439ZM29.1621 58.8619C29.0225 58.9199 28.8903 58.9683 28.7657 59.0069C28.6411 59.0478 28.4886 59.0682 28.3081 59.0682C28.0417 59.0682 27.8537 59.0016 27.7441 58.8684C27.6367 58.733 27.583 58.5429 27.583 58.2979V56.1452H27.0094V55.8358H27.5959V54.8465H28.1824V55.8358H29.0944V56.1452H28.1889V57.9209C28.1889 58.0541 28.1932 58.1658 28.2018 58.2561C28.2125 58.3441 28.2361 58.4215 28.2727 58.4881C28.307 58.5504 28.3586 58.5977 28.4273 58.6299C28.4961 58.6621 28.5885 58.6782 28.7045 58.6782C28.7582 58.6782 28.8366 58.6739 28.9397 58.6653C29.045 58.6546 29.1191 58.6417 29.1621 58.6267V58.8619ZM30.5865 58.6299C30.5865 58.7502 30.5425 58.8533 30.4544 58.9393C30.3685 59.023 30.2653 59.0649 30.145 59.0649C30.0247 59.0649 29.9205 59.023 29.8324 58.9393C29.7465 58.8533 29.7035 58.7502 29.7035 58.6299C29.7035 58.5096 29.7465 58.4064 29.8324 58.3205C29.9205 58.2324 30.0247 58.1884 30.145 58.1884C30.2653 58.1884 30.3685 58.2324 30.4544 58.3205C30.5425 58.4064 30.5865 58.5096 30.5865 58.6299ZM35.9941 59.0005H32.9745V58.5622C33.0325 58.4956 33.1131 58.4215 33.2162 58.3398C33.3193 58.2561 33.4418 58.1658 33.5836 58.0691C33.6695 58.0111 33.7727 57.9478 33.893 57.879C34.0133 57.8103 34.1497 57.7351 34.3022 57.6534C34.472 57.5632 34.602 57.4837 34.6922 57.4149C34.7846 57.3462 34.8684 57.2613 34.9436 57.1604C34.993 57.0938 35.0327 57.011 35.0628 56.9122C35.0929 56.8112 35.1079 56.6684 35.1079 56.4836C35.1079 56.215 35.0359 56.0185 34.892 55.8938C34.748 55.7671 34.5633 55.7037 34.3377 55.7037C34.198 55.7037 34.0659 55.7316 33.9413 55.7875C33.8167 55.8412 33.7232 55.9164 33.6609 56.0131C33.676 56.0818 33.6942 56.1635 33.7157 56.258C33.7394 56.3525 33.7512 56.4449 33.7512 56.5352C33.7512 56.6168 33.7168 56.6898 33.648 56.7543C33.5814 56.8166 33.4815 56.8478 33.3483 56.8478C33.2409 56.8478 33.1582 56.8112 33.1002 56.7382C33.0422 56.663 33.0132 56.5631 33.0132 56.4385C33.0132 56.3225 33.0454 56.2064 33.1099 56.0904C33.1743 55.9723 33.2667 55.8638 33.387 55.7649C33.5052 55.6683 33.6513 55.5898 33.8253 55.5297C33.9993 55.4695 34.1873 55.4395 34.3893 55.4395C34.8297 55.4395 35.1788 55.5383 35.4366 55.7359C35.6966 55.9314 35.8266 56.1936 35.8266 56.5223C35.8266 56.6791 35.8029 56.822 35.7557 56.9509C35.7105 57.0798 35.6364 57.1937 35.5333 57.2925C35.4194 57.4021 35.2862 57.4966 35.1337 57.5761C34.9812 57.6534 34.748 57.7619 34.4344 57.9016C34.2475 57.9854 34.0734 58.0734 33.9123 58.1658C33.7512 58.2561 33.619 58.3441 33.5159 58.4301H35.9941V59.0005ZM39.6164 55.9905C39.7539 56.156 39.856 56.3504 39.9226 56.5738C39.9913 56.7951 40.0257 57.0271 40.0257 57.2699C40.0257 57.5621 39.9838 57.8242 39.9 58.0563C39.8162 58.2861 39.7013 58.4773 39.5552 58.6299C39.4048 58.7867 39.2265 58.9049 39.0202 58.9844C38.814 59.0639 38.5841 59.1036 38.3306 59.1036C38.0534 59.1036 37.8063 59.0574 37.5894 58.965C37.3724 58.8727 37.1962 58.7459 37.0608 58.5848C36.919 58.4172 36.8127 58.2217 36.7418 57.9982C36.673 57.7727 36.6387 57.5299 36.6387 57.2699C36.6387 57.0143 36.672 56.779 36.7386 56.5642C36.8073 56.3493 36.9137 56.1549 37.0576 55.9809C37.1951 55.8133 37.3724 55.6812 37.5894 55.5845C37.8063 55.4878 38.0545 55.4395 38.3338 55.4395C38.6281 55.4395 38.8806 55.4889 39.0911 55.5877C39.3017 55.6865 39.4768 55.8208 39.6164 55.9905ZM39.3135 57.2699C39.3135 56.7586 39.2254 56.3622 39.0492 56.0808C38.8752 55.7993 38.6378 55.6586 38.337 55.6586C38.0319 55.6586 37.7913 55.7993 37.6151 56.0808C37.439 56.3622 37.3509 56.7586 37.3509 57.2699C37.3509 57.7555 37.4347 58.1465 37.6022 58.443C37.772 58.7373 38.0147 58.8845 38.3306 58.8845C38.6464 58.8845 38.8892 58.7373 39.0589 58.443C39.2286 58.1465 39.3135 57.7555 39.3135 57.2699ZM43.6705 55.9905C43.808 56.156 43.9101 56.3504 43.9767 56.5738C44.0454 56.7951 44.0798 57.0271 44.0798 57.2699C44.0798 57.5621 44.0379 57.8242 43.9541 58.0563C43.8703 58.2861 43.7554 58.4773 43.6093 58.6299C43.4589 58.7867 43.2806 58.9049 43.0743 58.9844C42.8681 59.0639 42.6382 59.1036 42.3847 59.1036C42.1075 59.1036 41.8604 59.0574 41.6435 58.965C41.4265 58.8727 41.2503 58.7459 41.1149 58.5848C40.9731 58.4172 40.8668 58.2217 40.7959 57.9982C40.7271 57.7727 40.6928 57.5299 40.6928 57.2699C40.6928 57.0143 40.7261 56.779 40.7927 56.5642C40.8614 56.3493 40.9678 56.1549 41.1117 55.9809C41.2492 55.8133 41.4265 55.6812 41.6435 55.5845C41.8604 55.4878 42.1086 55.4395 42.3879 55.4395C42.6822 55.4395 42.9347 55.4889 43.1452 55.5877C43.3558 55.6865 43.5309 55.8208 43.6705 55.9905ZM43.3676 57.2699C43.3676 56.7586 43.2795 56.3622 43.1033 56.0808C42.9293 55.7993 42.6919 55.6586 42.3911 55.6586C42.086 55.6586 41.8454 55.7993 41.6692 56.0808C41.4931 56.3622 41.405 56.7586 41.405 57.2699C41.405 57.7555 41.4888 58.1465 41.6563 58.443C41.8261 58.7373 42.0688 58.8845 42.3847 58.8845C42.7005 58.8845 42.9433 58.7373 43.113 58.443C43.2827 58.1465 43.3676 57.7555 43.3676 57.2699ZM47.7891 59.0005H44.7694V58.5622C44.8274 58.4956 44.908 58.4215 45.0111 58.3398C45.1143 58.2561 45.2367 58.1658 45.3785 58.0691C45.4645 58.0111 45.5676 57.9478 45.6879 57.879C45.8082 57.8103 45.9446 57.7351 46.0972 57.6534C46.2669 57.5632 46.3969 57.4837 46.4871 57.4149C46.5795 57.3462 46.6633 57.2613 46.7385 57.1604C46.7879 57.0938 46.8276 57.011 46.8577 56.9122C46.8878 56.8112 46.9028 56.6684 46.9028 56.4836C46.9028 56.215 46.8309 56.0185 46.6869 55.8938C46.543 55.7671 46.3582 55.7037 46.1326 55.7037C45.993 55.7037 45.8608 55.7316 45.7362 55.7875C45.6116 55.8412 45.5182 55.9164 45.4559 56.0131C45.4709 56.0818 45.4892 56.1635 45.5106 56.258C45.5343 56.3525 45.5461 56.4449 45.5461 56.5352C45.5461 56.6168 45.5117 56.6898 45.443 56.7543C45.3764 56.8166 45.2765 56.8478 45.1433 56.8478C45.0358 56.8478 44.9531 56.8112 44.8951 56.7382C44.8371 56.663 44.8081 56.5631 44.8081 56.4385C44.8081 56.3225 44.8403 56.2064 44.9048 56.0904C44.9692 55.9723 45.0616 55.8638 45.1819 55.7649C45.3001 55.6683 45.4462 55.5898 45.6202 55.5297C45.7942 55.4695 45.9822 55.4395 46.1842 55.4395C46.6246 55.4395 46.9737 55.5383 47.2315 55.7359C47.4915 55.9314 47.6215 56.1936 47.6215 56.5223C47.6215 56.6791 47.5979 56.822 47.5506 56.9509C47.5055 57.0798 47.4313 57.1937 47.3282 57.2925C47.2144 57.4021 47.0812 57.4966 46.9286 57.5761C46.7761 57.6534 46.543 57.7619 46.2293 57.9016C46.0424 57.9854 45.8684 58.0734 45.7072 58.1658C45.5461 58.2561 45.414 58.3441 45.3108 58.4301H47.7891V59.0005Z" fill="#2B2B2B"/>
<path d="M5.86317 26.3755L5.83377 26.5071C5.78547 26.5083 5.72678 26.5172 5.6577 26.5338C5.58763 26.5488 5.52052 26.5685 5.45637 26.5928C5.3894 26.6179 5.3292 26.6485 5.27577 26.6846C5.22135 26.7191 5.18628 26.7566 5.17056 26.7971C5.15667 26.8354 5.14178 26.8841 5.12589 26.9433C5.11 27.0024 5.09638 27.0574 5.08502 27.1082L5.06031 27.2188L7.22374 27.7023C7.26567 27.7117 7.30642 27.7114 7.34597 27.7016C7.38426 27.6915 7.4179 27.6663 7.4469 27.6261C7.46091 27.6052 7.48363 27.5602 7.51507 27.4912C7.54679 27.4209 7.56783 27.3656 7.57819 27.3252L7.71352 27.3555L7.4281 28.6325L7.29277 28.6023C7.29818 28.5661 7.30517 28.511 7.31373 28.4369C7.32258 28.3615 7.32441 28.3085 7.31922 28.278C7.31207 28.2324 7.29538 28.1966 7.26914 28.1707C7.24192 28.1433 7.20226 28.1238 7.15016 28.1121L4.96957 27.6248L4.94487 27.7353C4.93606 27.7747 4.9264 27.8239 4.91588 27.883C4.90408 27.9417 4.8954 27.9985 4.88983 28.0533C4.88554 28.0963 4.90115 28.1458 4.93668 28.2018C4.97121 28.2562 5.01281 28.3089 5.06148 28.3598C5.11014 28.4107 5.16361 28.458 5.22188 28.5017C5.27889 28.5451 5.32708 28.5773 5.36646 28.5981L5.33664 28.7315L4.60279 28.5675L5.12932 26.2115L5.86317 26.3755Z" fill="#2B2B2B"/>
<path d="M8.03994 23.6452L8.78995 23.9641L8.03085 26.1268L7.9005 26.0811C7.91094 26.0435 7.92323 25.9928 7.93736 25.9291C7.95028 25.8648 7.95567 25.8221 7.95355 25.8007C7.94893 25.7551 7.93452 25.7198 7.9103 25.6948C7.88651 25.6686 7.85197 25.6475 7.80669 25.6316L5.93407 24.9743C5.89368 24.9602 5.85583 24.9544 5.8205 24.9571C5.78396 24.9594 5.74837 24.9786 5.71375 25.0145C5.68624 25.042 5.65649 25.0817 5.62449 25.1337C5.59292 25.1845 5.57011 25.226 5.55606 25.2582L5.42571 25.2124L6.13326 23.1966L6.76113 23.417L6.7128 23.5547C6.61119 23.5465 6.49398 23.5652 6.36116 23.6107C6.22755 23.6545 6.14296 23.7114 6.10739 23.7814C6.08918 23.8176 6.06961 23.8616 6.04869 23.9134C6.02777 23.9652 6.0055 24.0247 5.98187 24.092L5.83817 24.5014L6.87362 24.8649L6.97672 24.5711C7.0098 24.4769 7.02529 24.4054 7.02319 24.3565C7.0203 24.306 7.00384 24.2569 6.97383 24.2093C6.94778 24.1699 6.90861 24.1307 6.85631 24.0917C6.80321 24.0511 6.75142 24.0185 6.70094 23.9939L6.74927 23.8562L7.76819 24.2138L7.71986 24.3515C7.65939 24.3358 7.59286 24.3276 7.52026 24.3268C7.44686 24.3244 7.39139 24.3297 7.35386 24.3427C7.29281 24.3638 7.24635 24.3963 7.21448 24.4401C7.18303 24.4827 7.15335 24.5438 7.12543 24.6233L7.02232 24.9171L7.80442 25.1916C7.88275 25.2191 7.94649 25.2353 7.99564 25.2402C8.04479 25.245 8.08658 25.2356 8.121 25.212C8.15543 25.1883 8.18598 25.1502 8.21265 25.0977C8.23811 25.0448 8.26866 24.9676 8.30432 24.866C8.31849 24.8256 8.33718 24.7723 8.36038 24.7062C8.38358 24.6402 8.40068 24.5836 8.41168 24.5366C8.4231 24.4884 8.43129 24.4376 8.43624 24.3844C8.44039 24.3295 8.4351 24.2878 8.42037 24.2592C8.38138 24.1823 8.31327 24.0924 8.21603 23.9895C8.11799 23.885 8.04383 23.8143 7.99354 23.7774L8.03994 23.6452Z" fill="#2B2B2B"/>
<path d="M10.2663 20.7343L9.93801 21.4058C9.63205 21.4406 9.3646 21.4769 9.13567 21.5145C8.90731 21.551 8.66852 21.5954 8.4193 21.6478L8.29469 21.9027L9.08571 22.2894C9.12673 22.3094 9.16621 22.3208 9.20415 22.3233C9.24092 22.3253 9.27782 22.3093 9.31485 22.2751C9.33337 22.258 9.35903 22.2248 9.39184 22.1755C9.42466 22.1262 9.45053 22.0837 9.46946 22.0479L9.59427 22.109L9.07865 23.1636L8.95384 23.1026C8.96525 23.0734 8.98091 23.0309 9.00083 22.9753C9.02133 22.9186 9.03204 22.8773 9.03298 22.8517C9.03493 22.809 9.02499 22.773 9.00314 22.7434C8.98186 22.7127 8.94837 22.6861 8.90267 22.6638L7.09914 21.7821C7.05813 21.762 7.01893 21.7501 6.98156 21.7464C6.94419 21.7426 6.90671 21.7584 6.8691 21.7938C6.84423 21.8179 6.81624 21.8514 6.78512 21.8943C6.75283 21.9366 6.72749 21.9736 6.7091 22.0052L6.5843 21.9442L7.14718 20.7928C7.19874 20.6874 7.25829 20.5938 7.32581 20.5121C7.39216 20.4298 7.4677 20.3629 7.55241 20.3114C7.63481 20.2617 7.72469 20.2338 7.82206 20.2276C7.91826 20.2209 8.01968 20.2437 8.12632 20.2958C8.22241 20.3428 8.30021 20.399 8.35972 20.4643C8.41922 20.5297 8.46189 20.6043 8.48773 20.6881C8.51234 20.7655 8.52535 20.8502 8.52675 20.9424C8.52699 21.034 8.51823 21.1306 8.50047 21.2323C8.72351 21.1889 8.91047 21.1539 9.06133 21.1275C9.21276 21.0999 9.39709 21.0659 9.61433 21.0254C9.70986 21.0082 9.78463 20.9875 9.83867 20.963C9.89211 20.9369 9.9394 20.9085 9.98054 20.8778C10.0107 20.8548 10.041 20.8224 10.0716 20.7807C10.1021 20.739 10.1254 20.7032 10.1415 20.6733L10.2663 20.7343ZM7.95449 20.7497C7.80331 20.6758 7.66258 20.6608 7.5323 20.7045C7.40084 20.7477 7.29644 20.8484 7.2191 21.0066L7.073 21.3054L8.14352 21.8288L8.2561 21.5985C8.33516 21.4368 8.34948 21.2768 8.29906 21.1186C8.24747 20.9598 8.13261 20.8368 7.95449 20.7497Z" fill="#2B2B2B"/>
<path d="M12.0091 18.0711L11.3821 19.0403L11.2656 18.9649C11.3153 18.8761 11.35 18.7985 11.3697 18.7322C11.3901 18.6647 11.3882 18.6232 11.3642 18.6076C11.3543 18.6013 11.3416 18.5946 11.326 18.5876C11.3104 18.5806 11.2957 18.5757 11.2819 18.573L10.6352 18.4291L10.108 19.2441C10.1647 19.3243 10.2151 19.3926 10.2592 19.449C10.304 19.5044 10.3455 19.5553 10.3837 19.6017C10.4216 19.6463 10.4535 19.6809 10.4794 19.7055C10.5054 19.73 10.5277 19.7483 10.5463 19.7604C10.59 19.7887 10.6462 19.7761 10.7148 19.7228C10.7834 19.6695 10.8478 19.6011 10.9081 19.5176L11.0245 19.5929L10.458 20.4686L10.3415 20.3932C10.3577 20.3634 10.3747 20.324 10.3925 20.275C10.4091 20.2253 10.4175 20.1811 10.4177 20.1424C10.4165 20.0796 10.4078 20.0259 10.3917 19.9814C10.3744 19.9361 10.3448 19.8836 10.3028 19.8238C10.0866 19.518 9.84211 19.1768 9.56931 18.8003C9.2965 18.4237 9.0537 18.0883 8.8409 17.794L8.92577 17.6628L11.4348 18.1857C11.488 18.1969 11.5345 18.2006 11.5742 18.1968C11.6138 18.193 11.6583 18.1807 11.7075 18.1598C11.739 18.1445 11.7734 18.1202 11.8105 18.0868C11.8465 18.0528 11.8739 18.0224 11.8926 17.9958L12.0091 18.0711ZM10.4511 18.3938L9.32108 18.1628L9.99914 19.0923L10.4511 18.3938Z" fill="#2B2B2B"/>
<path d="M13.1701 16.7135C13.0643 16.8408 12.9375 16.9423 12.7899 17.0179C12.6431 17.0926 12.4851 17.1358 12.3158 17.1477C12.1474 17.1586 11.9735 17.1344 11.794 17.075C11.6134 17.0148 11.438 16.9139 11.2675 16.7722C11.0971 16.6306 10.9644 16.4762 10.8694 16.309C10.7733 16.1411 10.7135 15.9693 10.6899 15.7937C10.6665 15.62 10.6794 15.4485 10.7286 15.2791C10.7778 15.1098 10.8612 14.9545 10.9787 14.8131C11.0662 14.7079 11.1584 14.6234 11.2553 14.5599C11.3522 14.4963 11.4563 14.4456 11.5675 14.4075L11.5165 14.2609L11.6165 14.1406L12.3887 14.7595L12.2862 14.8828C12.1987 14.8372 12.0985 14.7946 11.9856 14.755C11.8717 14.7146 11.7668 14.691 11.6708 14.6841C11.5626 14.6755 11.462 14.6885 11.3689 14.723C11.2748 14.7567 11.1923 14.8161 11.1215 14.9013C11.0407 14.9986 10.9868 15.1072 10.9599 15.2273C10.9338 15.3463 10.9375 15.4714 10.9709 15.6026C11.0038 15.7282 11.0691 15.8597 11.1669 15.9969C11.2647 16.1342 11.3908 16.267 11.5452 16.3953C11.6816 16.5086 11.8211 16.5958 11.9637 16.6567C12.1062 16.7158 12.2472 16.7491 12.3867 16.7566C12.5253 16.7632 12.6549 16.743 12.7755 16.6957C12.8969 16.6475 13.0027 16.5693 13.0927 16.461C13.1602 16.3798 13.2097 16.2947 13.2413 16.2057C13.2719 16.1158 13.287 16.0283 13.2866 15.9432C13.2841 15.8564 13.2707 15.7706 13.2462 15.6859C13.2217 15.6011 13.1864 15.5192 13.1402 15.4401L13.2881 15.3723C13.428 15.6344 13.4844 15.8745 13.4573 16.0927C13.4291 16.3101 13.3334 16.517 13.1701 16.7135Z" fill="#2B2B2B"/>
<path d="M14.5218 12.2039L14.4243 12.2987C14.3828 12.273 14.3284 12.2481 14.2609 12.2239C14.1934 12.1979 14.1259 12.1774 14.0582 12.1625C13.9878 12.1467 13.9201 12.1392 13.855 12.1401C13.79 12.1392 13.7396 12.1515 13.704 12.177C13.6711 12.2017 13.6316 12.2346 13.5855 12.2757C13.5394 12.3169 13.4975 12.3558 13.4598 12.3925L13.3778 12.4721L14.9373 14.0762C14.9675 14.1073 15.0021 14.1296 15.0409 14.1432C15.0788 14.1558 15.1212 14.1531 15.1679 14.1352C15.1912 14.1253 15.2353 14.0999 15.3 14.059C15.3656 14.0172 15.414 13.9821 15.445 13.9537L15.5426 14.0541L14.5957 14.9746L14.4981 14.8743C14.5227 14.8468 14.5591 14.8041 14.6073 14.7462C14.6564 14.6874 14.6872 14.6437 14.6997 14.6151C14.7189 14.5726 14.7246 14.5332 14.7167 14.4968C14.7089 14.4586 14.6862 14.4202 14.6487 14.3816L13.0768 12.7648L12.9948 12.8445C12.9656 12.8729 12.9303 12.9091 12.8887 12.9531C12.8463 12.9962 12.8076 13.0393 12.7726 13.0825C12.7452 13.1165 12.731 13.167 12.7301 13.2339C12.7292 13.2989 12.7352 13.3663 12.7481 13.4362C12.7611 13.5061 12.7801 13.5756 12.8051 13.6447C12.8293 13.7129 12.8522 13.7667 12.8739 13.806L12.775 13.9022L12.246 13.3581L13.9928 11.6598L14.5218 12.2039Z" fill="#2B2B2B"/>
<path d="M17.497 12.5127L16.5259 13.2845L16.4402 13.1766C16.4659 13.1528 16.503 13.1184 16.5515 13.0732C16.5999 13.0281 16.6316 12.9931 16.6464 12.968C16.6694 12.9283 16.6796 12.8913 16.6771 12.8569C16.6737 12.8215 16.656 12.7836 16.6238 12.743L15.3821 11.1809C15.3539 11.1455 15.325 11.1205 15.2954 11.1061C15.2649 11.0906 15.2224 11.0913 15.168 11.1081C15.128 11.1201 15.0806 11.1395 15.026 11.1665C14.9715 11.1915 14.9288 11.2148 14.8978 11.2361L14.8121 11.1282L15.7831 10.3564L15.8688 10.4643C15.8382 10.4903 15.804 10.5241 15.766 10.5658C15.7273 10.6065 15.6958 10.6448 15.6714 10.6807C15.6426 10.7235 15.6324 10.7638 15.641 10.8016C15.6496 10.8394 15.6671 10.875 15.6937 10.9085L16.9341 12.4691C16.9607 12.5025 16.9916 12.5267 17.0267 12.5418C17.062 12.5551 17.1034 12.5552 17.151 12.5422C17.1787 12.5334 17.2204 12.5151 17.276 12.4874C17.3319 12.4579 17.377 12.4303 17.4112 12.4048L17.497 12.5127Z" fill="#2B2B2B"/>
<path d="M18.7181 8.7293C18.8901 8.77027 19.0541 8.84813 19.2101 8.96289C19.3655 9.07656 19.5024 9.22533 19.6209 9.40921C19.7401 9.59419 19.8188 9.78125 19.857 9.97038C19.8952 10.1595 19.896 10.341 19.8593 10.5149C19.8253 10.6856 19.7592 10.8427 19.6613 10.9864C19.5633 11.13 19.4383 11.2509 19.2861 11.3489C19.1242 11.4533 18.9548 11.5198 18.7781 11.5485C18.6018 11.5754 18.4295 11.5664 18.2611 11.5215C18.0942 11.4788 17.9336 11.4002 17.7794 11.2859C17.6255 11.1697 17.4929 11.0251 17.3815 10.8522C17.2595 10.6628 17.1804 10.4752 17.1443 10.2894C17.1075 10.1025 17.1061 9.92131 17.1403 9.74595C17.1741 9.57239 17.2405 9.41342 17.3395 9.26905C17.4397 9.12398 17.5642 9.00348 17.713 8.90756C17.8674 8.80812 18.0316 8.74332 18.2058 8.71318C18.38 8.68303 18.5508 8.6884 18.7181 8.7293ZM19.5377 10.5386C19.5348 10.3995 19.5065 10.2582 19.4528 10.1147C19.4001 9.97047 19.3237 9.82065 19.2236 9.66523C19.1206 9.50543 19.0102 9.36899 18.8924 9.2559C18.7757 9.14212 18.657 9.05756 18.5361 9.00222C18.416 8.94797 18.2939 8.92439 18.1699 8.93149C18.0452 8.93749 17.9243 8.97822 17.8072 9.05368C17.6758 9.13832 17.5836 9.24035 17.5304 9.3598C17.4773 9.47924 17.4542 9.608 17.461 9.74608C17.4684 9.87766 17.5 10.0168 17.5558 10.1636C17.6128 10.3097 17.6871 10.4539 17.7788 10.5962C17.8803 10.7538 17.9863 10.8869 18.0965 10.9956C18.2068 11.1042 18.3243 11.188 18.4491 11.247C18.5702 11.3053 18.6933 11.3328 18.8184 11.3297C18.9427 11.3255 19.0672 11.2832 19.192 11.2028C19.3091 11.1273 19.3971 11.0319 19.456 10.9165C19.5148 10.8012 19.5421 10.6752 19.5377 10.5386Z" fill="#2B2B2B"/>
<path d="M22.5183 6.52224C22.4859 6.539 22.4397 6.57235 22.3798 6.62228C22.3199 6.67222 22.2796 6.71356 22.2591 6.74631C22.2306 6.79577 22.2285 6.86591 22.2527 6.95673C22.2781 7.04699 22.3211 7.15628 22.3818 7.28459L23.2491 9.11926L23.0955 9.19188L20.6077 7.85969L21.2188 9.15225C21.2872 9.29705 21.3486 9.40412 21.403 9.47347C21.4586 9.54226 21.513 9.58423 21.5663 9.59938C21.6056 9.61248 21.6729 9.61018 21.7682 9.59248C21.8636 9.57478 21.9251 9.56011 21.9527 9.54849L22.012 9.67386L20.9843 10.1597L20.925 10.0343C20.9557 10.0169 21.0039 9.98044 21.0698 9.92481C21.1351 9.86801 21.1733 9.82691 21.1844 9.80153C21.21 9.74909 21.2146 9.6857 21.1982 9.61136C21.1812 9.53585 21.134 9.41628 21.0567 9.25265L20.4732 8.01835C20.4476 7.9642 20.4126 7.9145 20.3681 7.86926C20.3237 7.82401 20.2786 7.79418 20.2329 7.77978C20.1722 7.76097 20.0989 7.75527 20.0131 7.7627C19.928 7.7684 19.8625 7.78064 19.8166 7.79943L19.7573 7.67406L20.4725 7.33598L22.7848 8.58043L22.2214 7.38852C22.1523 7.24255 22.0901 7.13516 22.0345 7.06637C21.9784 6.9964 21.9265 6.95682 21.879 6.94761C21.8354 6.94083 21.771 6.94465 21.6856 6.95908C21.6015 6.97295 21.5394 6.98789 21.4994 7.0039L21.4402 6.87853L22.459 6.39687L22.5183 6.52224Z" fill="#2B2B2B"/>
<path d="M27.935 6.19365C27.994 6.42227 28.0021 6.63164 27.9595 6.82177C27.917 7.0119 27.8407 7.17839 27.7307 7.32123C27.6194 7.4644 27.4841 7.58482 27.3247 7.68247C27.1653 7.78012 26.9934 7.85271 26.809 7.90024L25.695 8.18737L25.6603 8.05285C25.697 8.04341 25.7435 8.02805 25.8 8.00676C25.8574 7.98388 25.8944 7.96557 25.9111 7.95185C25.9448 7.92566 25.9657 7.89466 25.974 7.85886C25.9832 7.82146 25.982 7.78002 25.9703 7.73455L25.4702 5.79446C25.4591 5.75151 25.4416 5.71494 25.4177 5.68475C25.395 5.65422 25.3596 5.63439 25.3114 5.62525C25.2674 5.6164 25.2215 5.61341 25.1737 5.61629C25.126 5.61917 25.0854 5.62357 25.0519 5.62951L25.0172 5.49499L26.1919 5.19223C26.3536 5.15056 26.5192 5.1348 26.6889 5.14496C26.8582 5.15385 27.0118 5.18564 27.1499 5.24031C27.3367 5.31203 27.4984 5.42728 27.635 5.58605C27.7715 5.74482 27.8716 5.94735 27.935 6.19365ZM27.4704 6.3114C27.4238 6.13078 27.3578 5.97403 27.2724 5.84114C27.1866 5.70699 27.0837 5.59749 26.9634 5.51263C26.8496 5.43152 26.7212 5.37772 26.5784 5.35124C26.4368 5.32443 26.2883 5.33105 26.1329 5.37109C26.0811 5.38444 26.0227 5.40084 25.9577 5.42029C25.8936 5.43816 25.8459 5.45179 25.8147 5.4612L26.3474 7.52823C26.3771 7.64317 26.431 7.71412 26.5094 7.74107C26.5877 7.76802 26.6964 7.7636 26.8353 7.72779C26.9957 7.68644 27.1286 7.62189 27.2339 7.53412C27.3393 7.44635 27.4162 7.34234 27.4647 7.22209C27.5156 7.09581 27.5409 6.95864 27.5404 6.81058C27.5409 6.66094 27.5176 6.49454 27.4704 6.3114Z" fill="#2B2B2B"/>
<path d="M31.2911 6.27599L31.3453 7.09022L29.07 7.38972L29.0519 7.25259C29.0902 7.24493 29.141 7.233 29.2044 7.2168C29.2676 7.19931 29.3083 7.18479 29.3264 7.17323C29.3651 7.14849 29.3901 7.11965 29.4015 7.08671C29.4141 7.05361 29.4173 7.01323 29.4111 6.96559L29.1517 4.99548C29.1461 4.95298 29.1341 4.91657 29.1157 4.88625C29.0972 4.85463 29.064 4.83149 29.0162 4.81682C28.9792 4.80466 28.9303 4.79604 28.8694 4.79096C28.8097 4.78571 28.7624 4.78408 28.7272 4.78609L28.7092 4.64895L30.83 4.36978L30.9169 5.03035L30.7721 5.04942C30.7334 4.95495 30.6638 4.85866 30.5631 4.76057C30.4635 4.66102 30.3744 4.61118 30.2958 4.61105C30.2552 4.61115 30.2071 4.61356 30.1514 4.61827C30.0957 4.62299 30.0324 4.63 29.9616 4.63933L29.5308 4.69602L29.6742 5.78538L29.9833 5.7447C30.0824 5.73165 30.1534 5.71314 30.196 5.68918C30.2399 5.66377 30.2763 5.62688 30.3053 5.57852C30.3287 5.53745 30.346 5.48474 30.3572 5.42039C30.3695 5.35458 30.3752 5.29357 30.3743 5.23736L30.5192 5.21829L30.6603 6.29026L30.5154 6.30933C30.5022 6.2482 30.4794 6.18504 30.4473 6.11984C30.4162 6.05319 30.3864 6.00602 30.3579 5.97834C30.3114 5.93338 30.2613 5.90656 30.2078 5.89789C30.1556 5.88904 30.0876 5.89013 30.0039 5.90115L29.6948 5.94183L29.8032 6.76464C29.814 6.84705 29.8284 6.91132 29.8462 6.95743C29.8641 7.00355 29.8914 7.03664 29.9281 7.0567C29.9648 7.07676 30.0126 7.08683 30.0715 7.08693C30.1303 7.08574 30.2132 7.07811 30.32 7.06405C30.3625 7.05845 30.4186 7.05108 30.4881 7.04193C30.5576 7.03277 30.6159 7.02249 30.6628 7.01106C30.7111 6.99947 30.7601 6.98385 30.8099 6.96419C30.8609 6.94308 30.8957 6.91949 30.9146 6.89343C30.9657 6.82383 31.0152 6.72234 31.0631 6.58896C31.1122 6.45412 31.1418 6.3559 31.1521 6.2943L31.2911 6.27599Z" fill="#2B2B2B"/>
<path d="M33.8822 5.72064C33.9421 5.78457 33.9865 5.85532 34.0154 5.9329C34.0456 6.00915 34.0617 6.09871 34.0638 6.20157C34.0687 6.44637 33.9822 6.65 33.8044 6.81247C33.6266 6.97495 33.4036 7.05887 33.1353 7.06423C33.0116 7.06671 32.8876 7.0503 32.7631 7.01502C32.6386 6.97843 32.5309 6.93369 32.44 6.8808L32.3588 7.02506L32.2026 7.02818L32.1563 6.07951L32.3145 6.07635C32.3494 6.19288 32.3892 6.29825 32.4341 6.39244C32.4803 6.4853 32.54 6.57204 32.6132 6.65263C32.6825 6.7281 32.7625 6.78773 32.8532 6.8315C32.9453 6.87525 33.0512 6.89593 33.171 6.89353C33.2608 6.89173 33.3387 6.87845 33.4047 6.85369C33.4719 6.82889 33.5259 6.7946 33.5667 6.75079C33.6075 6.70699 33.6371 6.65625 33.6555 6.59857C33.6752 6.53956 33.6843 6.47229 33.6828 6.39677C33.6805 6.28609 33.6472 6.18385 33.5828 6.09005C33.5184 5.99495 33.4238 5.92389 33.2992 5.87689C33.2138 5.84473 33.1161 5.80956 33.0059 5.77138C32.8957 5.7319 32.8005 5.69473 32.7204 5.65986C32.5627 5.59267 32.4391 5.50331 32.3496 5.39178C32.2614 5.27891 32.2154 5.13068 32.2118 4.94709C32.2097 4.84162 32.2292 4.74288 32.2703 4.65088C32.3115 4.55887 32.371 4.47627 32.449 4.40307C32.5232 4.33385 32.6113 4.27933 32.7134 4.23951C32.8155 4.19839 32.9226 4.17671 33.0345 4.17447C33.1621 4.17192 33.2765 4.18917 33.3775 4.22623C33.4799 4.26326 33.5732 4.30698 33.6576 4.3574L33.735 4.22298L33.8913 4.21986L33.9253 5.13947L33.7671 5.14263C33.7363 5.03773 33.7018 4.93747 33.6634 4.84185C33.6263 4.7462 33.5783 4.65988 33.5195 4.5829C33.462 4.5085 33.3924 4.44998 33.3108 4.40732C33.2291 4.36336 33.1297 4.34255 33.0125 4.3449C32.8889 4.34737 32.7842 4.3892 32.6985 4.47037C32.6129 4.55154 32.5712 4.64942 32.5735 4.764C32.5759 4.88379 32.6059 4.98284 32.6634 5.06115C32.721 5.13816 32.8037 5.20098 32.9115 5.24963C33.0074 5.2933 33.1013 5.33115 33.1931 5.36318C33.2862 5.39388 33.3761 5.42725 33.4628 5.4633C33.5416 5.49559 33.6173 5.5325 33.6897 5.57404C33.7635 5.61555 33.8277 5.66441 33.8822 5.72064Z" fill="#2B2B2B"/>
<path d="M36.2492 7.11613L35.0038 7.03529L35.0127 6.8969C35.048 6.89658 35.0989 6.89597 35.1655 6.89508C35.2321 6.89418 35.2794 6.88942 35.3074 6.8808C35.3513 6.86669 35.384 6.84598 35.4053 6.81866C35.4268 6.79004 35.4392 6.74974 35.4426 6.69777L35.5726 4.69417C35.5756 4.64869 35.5709 4.61055 35.5585 4.57974C35.5462 4.54762 35.5141 4.51944 35.4622 4.4952C35.4243 4.47707 35.3758 4.45958 35.3169 4.4427C35.2593 4.42461 35.2118 4.41305 35.1743 4.408L35.1833 4.26962L36.4287 4.35047L36.4197 4.48885C36.3794 4.48753 36.3309 4.48961 36.2745 4.49508C36.2181 4.49925 36.1687 4.50648 36.1263 4.51677C36.0759 4.52916 36.0411 4.55235 36.0219 4.58633C36.0028 4.62032 35.9918 4.65875 35.989 4.70163L35.8591 6.70327C35.8563 6.74615 35.8629 6.78507 35.8789 6.82004C35.8963 6.85379 35.9271 6.88188 35.9713 6.90432C35.9979 6.91649 36.0413 6.93105 36.1016 6.94801C36.1632 6.96375 36.2154 6.97367 36.2582 6.97775L36.2492 7.11613Z" fill="#2B2B2B"/>
<path d="M39.8391 6.47049C39.8075 6.46907 39.7645 6.46835 39.7101 6.46834C39.6571 6.46726 39.6132 6.4717 39.5783 6.48167C39.5363 6.4944 39.5039 6.51739 39.4809 6.55064C39.4595 6.58282 39.4447 6.62277 39.4365 6.6705L39.4002 6.88333C39.3737 7.03812 39.3565 7.14271 39.3485 7.1971C39.3418 7.25172 39.3368 7.29666 39.3334 7.33193C39.1486 7.37999 38.9676 7.41011 38.7903 7.42228C38.6129 7.43445 38.4424 7.42653 38.2786 7.39853C38.1031 7.36854 37.9398 7.30676 37.7885 7.21319C37.6372 7.11962 37.5113 7.00185 37.4108 6.85988C37.3092 6.71639 37.2373 6.55076 37.1951 6.36299C37.1528 6.17522 37.1502 5.97298 37.1873 5.75628C37.223 5.54732 37.2902 5.35968 37.389 5.19336C37.4893 5.02598 37.6139 4.8873 37.7628 4.77735C37.9074 4.66931 38.0703 4.59426 38.2514 4.5522C38.434 4.50907 38.622 4.50405 38.8155 4.53712C38.9703 4.56359 39.1019 4.60533 39.2103 4.66236C39.3187 4.71939 39.4122 4.78185 39.4909 4.84973L39.5927 4.73172L39.7475 4.75818L39.6009 5.72083L39.4422 5.69371C39.4332 5.58331 39.4174 5.47374 39.3949 5.365C39.3725 5.25498 39.3367 5.15393 39.2874 5.06186C39.2381 4.9698 39.1717 4.89207 39.0883 4.82869C39.0064 4.76424 38.9022 4.72121 38.7758 4.6996C38.6378 4.67601 38.5097 4.68332 38.3917 4.72156C38.2739 4.7585 38.1655 4.8256 38.0665 4.92286C37.9695 5.01647 37.8861 5.13961 37.8162 5.29227C37.7463 5.44494 37.6945 5.61995 37.6607 5.81731C37.631 5.99144 37.6235 6.15943 37.6383 6.32127C37.6546 6.48204 37.6932 6.62537 37.754 6.75127C37.8143 6.87974 37.8988 6.98712 38.0076 7.07341C38.1163 7.1597 38.2467 7.21585 38.3989 7.24187C38.5124 7.26128 38.6186 7.26151 38.7174 7.24256C38.8176 7.22383 38.8903 7.19842 38.9356 7.16634C38.9574 7.10103 38.9741 7.03419 38.9858 6.96583C38.9988 6.89769 39.0093 6.83975 39.0175 6.79203L39.0433 6.64111C39.0525 6.58693 39.053 6.53789 39.0445 6.49396C39.0376 6.44897 39.0126 6.41283 38.9695 6.38555C38.9302 6.35892 38.8746 6.33481 38.8026 6.31321C38.7322 6.29054 38.6765 6.27439 38.6357 6.26476L38.6598 6.12351L39.8633 6.32925L39.8391 6.47049Z" fill="#2B2B2B"/>
<path d="M43.8714 6.07037C43.8362 6.06096 43.7796 6.05455 43.7017 6.05115C43.6237 6.04774 43.5661 6.05124 43.5289 6.06165C43.4746 6.07907 43.4258 6.12951 43.3826 6.21297C43.3406 6.29681 43.2989 6.40659 43.2574 6.54232L42.664 8.48293L42.5015 8.43325L41.5583 5.77365L41.1402 7.14086C41.0934 7.29401 41.0668 7.41454 41.0603 7.50243C41.0551 7.5907 41.0671 7.65836 41.0963 7.70541C41.1166 7.74156 41.1679 7.78517 41.2503 7.83624C41.3327 7.88731 41.3881 7.91785 41.4163 7.92785L41.3758 8.06046L40.2888 7.7281L40.3293 7.59549C40.3637 7.60328 40.424 7.60877 40.5101 7.61197C40.5967 7.61392 40.6526 7.60922 40.6778 7.59788C40.7321 7.57634 40.7781 7.53256 40.816 7.46653C40.8543 7.39926 40.8999 7.27909 40.9528 7.10601L41.352 5.80043C41.3695 5.74316 41.377 5.68283 41.3746 5.61946C41.3722 5.55609 41.359 5.5037 41.3349 5.46229C41.3026 5.4075 41.2522 5.35398 41.1838 5.30173C41.117 5.24863 41.0603 5.21359 41.0137 5.19663L41.0543 5.06402L41.8107 5.29531L42.6833 7.77195L43.0688 6.51121C43.116 6.3568 43.1422 6.23546 43.1474 6.14719C43.153 6.05767 43.1413 5.99351 43.1123 5.95469C43.0847 5.92037 43.0344 5.87982 42.9616 5.83304C42.89 5.78665 42.834 5.75592 42.7937 5.74087L42.8343 5.60825L43.912 5.93776L43.8714 6.07037Z" fill="#2B2B2B"/>
<path d="M47.9477 8.61685L47.8173 8.54951C47.8402 8.44531 47.8397 8.32095 47.8159 8.17645C47.7932 8.03255 47.7492 7.93713 47.6838 7.89017C47.6503 7.86697 47.6091 7.84134 47.5605 7.81328C47.513 7.78582 47.4579 7.75593 47.3952 7.7236L46.9812 7.50989L46.4693 8.50162L46.7529 8.64798C46.8388 8.69228 46.9099 8.718 46.9665 8.72514C47.0236 8.73113 47.0786 8.72424 47.1314 8.70449C47.1677 8.69094 47.209 8.66228 47.2551 8.6185C47.3029 8.57416 47.3456 8.52275 47.3831 8.46427L47.5154 8.53251L47.0152 9.50162L46.883 9.43337C46.9058 9.38054 46.9236 9.31626 46.9362 9.24053C46.95 9.1654 46.9528 9.10735 46.9446 9.06638C46.932 9.0055 46.9028 8.95376 46.8573 8.91114C46.8135 8.86796 46.7544 8.82722 46.6802 8.78891L46.3966 8.64255L45.9575 9.49334C45.9378 9.53162 45.9276 9.56972 45.9271 9.60766C45.9267 9.6456 45.9408 9.68373 45.9695 9.72204C45.9827 9.73914 46.0153 9.76846 46.0673 9.80999C46.1193 9.85152 46.1601 9.88064 46.1896 9.89737L46.1259 10.0209L45.0559 9.46867L45.1196 9.34514C45.1556 9.36078 45.2038 9.38124 45.2642 9.40653C45.3252 9.43067 45.3665 9.44316 45.3881 9.44402C45.4307 9.4469 45.467 9.43773 45.497 9.41652C45.5288 9.39474 45.5555 9.36297 45.577 9.32122L46.4965 7.5396C46.5163 7.50132 46.5273 7.46439 46.5295 7.42881C46.5323 7.39207 46.5182 7.35394 46.4871 7.31443C46.4636 7.28319 46.4282 7.248 46.3808 7.20886C46.3346 7.17033 46.2964 7.14182 46.2663 7.12333L46.33 6.9998L48.2665 7.9992L47.9477 8.61685Z" fill="#2B2B2B"/>
<path d="M50.8825 10.034C50.9126 10.2082 50.9057 10.3896 50.8617 10.5783C50.8184 10.7658 50.7356 10.9503 50.6133 11.1316C50.4902 11.3141 50.3493 11.4601 50.1905 11.5697C50.0317 11.6794 49.8652 11.7516 49.691 11.7864C49.5207 11.8223 49.3502 11.8236 49.1796 11.7901C49.0089 11.7567 48.8486 11.6894 48.6986 11.5882C48.5388 11.4804 48.4109 11.351 48.315 11.1998C48.2208 11.0484 48.1612 10.8864 48.1361 10.714C48.1096 10.5438 48.1185 10.3653 48.1629 10.1784C48.2091 9.99126 48.2897 9.81239 48.4047 9.64184C48.5307 9.45509 48.672 9.30852 48.8286 9.20211C48.9859 9.09463 49.1519 9.02204 49.3265 8.98435C49.4993 8.94701 49.6716 8.94542 49.8433 8.97958C50.0161 9.01447 50.1759 9.08143 50.3227 9.18045C50.4749 9.28312 50.5992 9.40857 50.6955 9.5568C50.7919 9.70503 50.8542 9.86409 50.8825 10.034ZM49.5425 11.5001C49.6692 11.4427 49.7879 11.361 49.8986 11.2551C50.0104 11.1498 50.118 11.0206 50.2214 10.8673C50.3277 10.7097 50.4097 10.5545 50.4672 10.4017C50.5258 10.2496 50.5567 10.1071 50.56 9.97426C50.5625 9.84246 50.5361 9.72098 50.4807 9.60981C50.4261 9.49756 50.341 9.40247 50.2255 9.32456C50.096 9.23718 49.9658 9.1926 49.8351 9.1908C49.7044 9.18901 49.5769 9.21847 49.4527 9.27918C49.3347 9.33777 49.2192 9.42165 49.1063 9.53082C48.9945 9.64072 48.8912 9.76583 48.7966 9.90616C48.6917 10.0616 48.6111 10.2114 48.5547 10.3555C48.4983 10.4997 48.4675 10.6407 48.4624 10.7787C48.4567 10.913 48.4798 11.037 48.5319 11.1506C48.5848 11.2632 48.6727 11.3611 48.7958 11.4441C48.9113 11.522 49.0336 11.5653 49.1629 11.5739C49.2921 11.5826 49.4187 11.558 49.5425 11.5001Z" fill="#2B2B2B"/>
<path d="M54.3222 12.6743C54.294 12.6512 54.2488 12.6218 54.1867 12.5862C54.1245 12.5505 54.0673 12.5288 54.0152 12.5211C53.9622 12.5143 53.8985 12.5405 53.8239 12.5996C53.7493 12.6588 53.6674 12.7391 53.578 12.8407L52.7826 13.7445C52.6812 13.8598 52.5692 13.9388 52.4466 13.9817C52.324 14.0245 52.1996 14.0389 52.0733 14.0248C51.9498 14.0097 51.8351 13.9755 51.7294 13.9224C51.6238 13.871 51.532 13.811 51.4539 13.7423C51.3289 13.6323 51.2321 13.5177 51.1637 13.3985C51.0944 13.2804 51.051 13.1642 51.0336 13.0501C51.0172 12.9369 51.0237 12.83 51.0532 12.7295C51.0836 12.628 51.1332 12.5382 51.2019 12.4601L52.2834 11.2311C52.3135 11.1969 52.3326 11.1634 52.3406 11.1307C52.3505 11.0978 52.347 11.0565 52.33 11.0069C52.3176 10.9717 52.2958 10.9335 52.2646 10.8922C52.2342 10.8499 52.2077 10.817 52.185 10.7936L52.2765 10.6896L53.1423 11.4514L53.0507 11.5554C53.0225 11.5323 52.984 11.5062 52.9351 11.4771C52.8872 11.4488 52.8505 11.4295 52.825 11.4191C52.7815 11.4016 52.7418 11.4014 52.706 11.4184C52.6712 11.4363 52.6396 11.4614 52.6113 11.4936L51.6007 12.642C51.5517 12.6977 51.506 12.7614 51.4636 12.8333C51.423 12.905 51.3976 12.9831 51.3873 13.0677C51.3781 13.1549 51.3912 13.2444 51.4265 13.3361C51.4619 13.4279 51.5367 13.524 51.651 13.6246C51.7584 13.7191 51.8633 13.7811 51.9656 13.8105C52.0689 13.8408 52.1661 13.8466 52.2571 13.8278C52.3435 13.8103 52.4204 13.7801 52.4877 13.7371C52.555 13.6941 52.6144 13.6433 52.666 13.5847L53.4162 12.7321C53.5116 12.6237 53.5816 12.5285 53.6261 12.4464C53.6715 12.3633 53.6885 12.2977 53.6771 12.2495C53.6644 12.1951 53.6343 12.1348 53.5868 12.0687C53.5402 12.0034 53.5021 11.9561 53.4726 11.9266L53.5641 11.8226L54.4138 12.5703L54.3222 12.6743Z" fill="#2B2B2B"/>
<path d="M56.9804 15.55C56.9554 15.5234 56.9106 15.4881 56.8462 15.4442C56.7818 15.4002 56.731 15.3728 56.6939 15.3621C56.6385 15.3482 56.5705 15.3654 56.4897 15.4136C56.4099 15.4627 56.3166 15.534 56.2098 15.6275L54.6829 16.9642L54.571 16.8364L55.1707 14.0789L54.095 15.0206C53.9745 15.1261 53.8884 15.2145 53.8366 15.2858C53.7856 15.3581 53.7602 15.4219 53.7602 15.4773C53.7584 15.5187 53.779 15.5828 53.8222 15.6697C53.8653 15.7565 53.8963 15.8116 53.915 15.835L53.8107 15.9263L53.0619 15.0711L53.1662 14.9797C53.1914 15.0045 53.2397 15.0409 53.3112 15.089C53.3838 15.1363 53.4337 15.1617 53.4612 15.1654C53.5186 15.1757 53.5809 15.1627 53.6478 15.1266C53.7158 15.0896 53.8179 15.0115 53.9541 14.8922L54.9813 13.993C55.0263 13.9535 55.0646 13.9062 55.0959 13.8511C55.1272 13.796 55.1436 13.7444 55.1449 13.6966C55.1464 13.633 55.1318 13.561 55.1011 13.4805C55.0723 13.4001 55.0426 13.3405 55.012 13.3016L55.1163 13.2102L55.6373 13.8054L55.074 16.3701L56.0659 15.5017C56.1874 15.3953 56.2736 15.306 56.3245 15.2337C56.3764 15.1606 56.4003 15.0999 56.3961 15.0516C56.3907 15.0079 56.3694 14.947 56.3321 14.8688C56.2957 14.7917 56.2644 14.7361 56.238 14.702L56.3424 14.6107L57.0847 15.4586L56.9804 15.55Z" fill="#2B2B2B"/>
<path d="M58.029 19.2938C57.8336 19.4255 57.6394 19.5032 57.4463 19.5266C57.2532 19.5501 57.0711 19.5339 56.9 19.4781C56.7282 19.4213 56.5697 19.3342 56.4246 19.2169C56.2795 19.0996 56.1538 18.9621 56.0475 18.8045L55.4052 17.8525L55.5202 17.7749C55.5413 17.8062 55.5713 17.8449 55.6102 17.8909C55.6509 17.9373 55.6805 17.966 55.699 17.9771C55.7349 18 55.771 18.0094 55.8075 18.0052C55.8457 18.0014 55.8843 17.9864 55.9232 17.9602L57.5812 16.8417C57.6179 16.817 57.6465 16.7883 57.6669 16.7557C57.688 16.7241 57.6948 16.6842 57.6873 16.6358C57.681 16.5914 57.6684 16.5473 57.6498 16.5033C57.6311 16.4594 57.6134 16.4226 57.5966 16.3931L57.7116 16.3155L58.3888 17.3194C58.482 17.4576 58.5521 17.6082 58.5993 17.7712C58.6474 17.9334 58.6689 18.0886 58.6635 18.2367C58.6585 18.4364 58.6041 18.627 58.5004 18.8085C58.3966 18.99 58.2395 19.1518 58.029 19.2938ZM57.763 18.896C57.9174 18.7918 58.0428 18.6774 58.1393 18.5526C58.2368 18.4272 58.3054 18.2937 58.3451 18.1523C58.3834 18.0181 58.3911 17.8794 58.3683 17.7361C58.3462 17.594 58.2904 17.4565 58.2008 17.3237C58.171 17.2795 58.136 17.23 58.096 17.1753C58.0578 17.121 58.0291 17.0807 58.0098 17.0544L56.2432 18.2461C56.145 18.3123 56.0963 18.3868 56.0971 18.4695C56.0979 18.5522 56.1384 18.6529 56.2185 18.7717C56.311 18.9087 56.4161 19.0122 56.5338 19.082C56.6516 19.1517 56.7751 19.1893 56.9044 19.1948C57.0402 19.2005 57.1777 19.1785 57.3168 19.1286C57.4578 19.0791 57.6065 19.0015 57.763 18.896Z" fill="#2B2B2B"/>
<path d="M58.445 23.0804L57.9263 22.0492L58.0502 21.9869C58.1017 22.0747 58.151 22.1439 58.1983 22.1944C58.2462 22.2461 58.2829 22.2655 58.3085 22.2527C58.319 22.2474 58.3312 22.2398 58.3451 22.2299C58.3591 22.2199 58.3707 22.2097 58.38 22.1992L58.8313 21.7143L58.3952 20.8471C58.2974 20.8554 58.213 20.8644 58.1419 20.8739C58.0715 20.8845 58.0066 20.8946 57.9472 20.904C57.8896 20.914 57.8436 20.9241 57.8093 20.934C57.775 20.944 57.7479 20.954 57.7281 20.9639C57.6816 20.9873 57.664 21.0421 57.6752 21.1283C57.6865 21.2144 57.7129 21.3046 57.7545 21.3988L57.6306 21.4612L57.162 20.5294L57.2859 20.4671C57.3034 20.4962 57.3288 20.5307 57.3621 20.5708C57.3966 20.6104 57.4304 20.64 57.4636 20.6597C57.5184 20.6904 57.5692 20.7101 57.6158 20.7187C57.6635 20.7268 57.7238 20.7278 57.7966 20.7218C58.1698 20.6901 58.5878 20.6518 59.0506 20.6071C59.5134 20.5623 59.9256 20.5226 60.2872 20.488L60.3574 20.6276L58.6367 22.527C58.6001 22.5673 58.5734 22.6055 58.5566 22.6417C58.5398 22.6778 58.528 22.7224 58.5211 22.7754C58.5183 22.8103 58.5219 22.8522 58.5319 22.9011C58.5431 22.9494 58.5554 22.9884 58.5688 23.0181L58.445 23.0804ZM58.955 21.5734L59.726 20.7156L58.5812 20.83L58.955 21.5734Z" fill="#2B2B2B"/>
<path d="M61.2873 25.0717L61.2415 24.945C61.2816 24.9181 61.3263 24.8791 61.3756 24.828C61.4267 24.7777 61.4727 24.7251 61.5137 24.6701C61.5567 24.613 61.5911 24.5549 61.6167 24.4958C61.6441 24.4375 61.6535 24.387 61.645 24.3444C61.6362 24.3047 61.6226 24.2556 61.6043 24.1972C61.5859 24.1388 61.5679 24.0851 61.5502 24.0362L61.5116 23.9297L59.4278 24.6833C59.3874 24.6979 59.3532 24.72 59.3251 24.7495C59.2983 24.7786 59.2834 24.8179 59.2806 24.8674C59.28 24.8925 59.2849 24.9426 59.2955 25.0177C59.3065 25.094 59.3184 25.1519 59.3314 25.1915L59.201 25.2387L58.7561 24.0086L58.8865 23.9614C58.9013 23.9948 58.925 24.0451 58.9576 24.1122C58.9906 24.1805 59.0175 24.2262 59.0383 24.2491C59.0688 24.2837 59.1021 24.3049 59.1381 24.3127C59.1758 24.3212 59.2197 24.3164 59.2699 24.2982L61.3702 23.5386L61.3317 23.4321C61.318 23.3942 61.2997 23.3475 61.2769 23.2921C61.2553 23.2362 61.2322 23.1837 61.2075 23.1345C61.188 23.0959 61.1482 23.0625 61.0882 23.0344C61.0299 23.007 60.9665 22.985 60.8982 22.9682C60.8298 22.9514 60.7593 22.9402 60.6867 22.9346C60.6153 22.9286 60.5575 22.9274 60.5131 22.931L60.4666 22.8024L61.1735 22.5468L61.9942 24.8161L61.2873 25.0717Z" fill="#2B2B2B"/>
</svg>
